<mxfile host="app.diagrams.net" agent="Mozilla/5.0 (Windows NT 10.0; Win64; x64) AppleWebKit/537.36 (KHTML, like Gecko) Chrome/127.0.0.0 Safari/537.36" version="24.7.6">
  <diagram name="PÃ¡gina-1" id="pXVFM5n6c6G0jfJ4PCCN">
    <mxGraphModel dx="2239" dy="1747" grid="1" gridSize="10" guides="1" tooltips="1" connect="1" arrows="1" fold="1" page="1" pageScale="1" pageWidth="827" pageHeight="1169" math="0" shadow="0">
      <root>
        <mxCell id="0" />
        <mxCell id="1" parent="0" />
        <mxCell id="jH6iQox9prqGAPSt_MAr-1" value="&lt;font style=&quot;font-size: 18px;&quot;&gt;Usuario&lt;/font&gt;" style="shape=umlActor;verticalLabelPosition=bottom;verticalAlign=top;html=1;outlineConnect=0;fillColor=#FFCCE6;" vertex="1" parent="1">
          <mxGeometry x="-100" y="-210" width="150" height="300" as="geometry" />
        </mxCell>
        <mxCell id="jH6iQox9prqGAPSt_MAr-18" value="" style="rounded=0;whiteSpace=wrap;html=1;fillColor=#E6FFCC;" vertex="1" parent="1">
          <mxGeometry x="200" y="-490" width="340" height="790" as="geometry" />
        </mxCell>
        <mxCell id="jH6iQox9prqGAPSt_MAr-2" value="Agregar nueva Mascota" style="ellipse;whiteSpace=wrap;html=1;fillColor=#FFCCE6;" vertex="1" parent="1">
          <mxGeometry x="395" y="-220" width="100" height="60" as="geometry" />
        </mxCell>
        <mxCell id="jH6iQox9prqGAPSt_MAr-3" value="Guardar informacion basica (Hoja de vida)" style="ellipse;whiteSpace=wrap;html=1;fillColor=#FFCCE6;" vertex="1" parent="1">
          <mxGeometry x="230" y="-460" width="100" height="60" as="geometry" />
        </mxCell>
        <mxCell id="jH6iQox9prqGAPSt_MAr-4" value="Rastrear perros por GPS" style="ellipse;whiteSpace=wrap;html=1;fillColor=#FFCCE6;" vertex="1" parent="1">
          <mxGeometry x="395" y="-370" width="100" height="60" as="geometry" />
        </mxCell>
        <mxCell id="jH6iQox9prqGAPSt_MAr-5" value="Eliminar mascota" style="ellipse;whiteSpace=wrap;html=1;fillColor=#FFCCE6;" vertex="1" parent="1">
          <mxGeometry x="395" y="-70" width="100" height="60" as="geometry" />
        </mxCell>
        <mxCell id="jH6iQox9prqGAPSt_MAr-6" value="Acatualizar informacion de mascota" style="ellipse;whiteSpace=wrap;html=1;fillColor=#FFCCE6;" vertex="1" parent="1">
          <mxGeometry x="410" y="-140" width="100" height="60" as="geometry" />
        </mxCell>
        <mxCell id="jH6iQox9prqGAPSt_MAr-7" value="Guardar tarjeta virtual de vacunas" style="ellipse;whiteSpace=wrap;html=1;fillColor=#FFCCE6;" vertex="1" parent="1">
          <mxGeometry x="330" y="-430" width="100" height="60" as="geometry" />
        </mxCell>
        <mxCell id="jH6iQox9prqGAPSt_MAr-8" value="Agregar Vacuna" style="ellipse;whiteSpace=wrap;html=1;fillColor=#FFCCE6;" vertex="1" parent="1">
          <mxGeometry x="410" width="100" height="60" as="geometry" />
        </mxCell>
        <mxCell id="jH6iQox9prqGAPSt_MAr-9" value="Actualizar Informacion de vacuna" style="ellipse;whiteSpace=wrap;html=1;fillColor=#FFCCE6;" vertex="1" parent="1">
          <mxGeometry x="414" y="70" width="100" height="60" as="geometry" />
        </mxCell>
        <mxCell id="jH6iQox9prqGAPSt_MAr-10" value="Eliminar vacuna" style="ellipse;whiteSpace=wrap;html=1;fillColor=#FFCCE6;" vertex="1" parent="1">
          <mxGeometry x="400" y="140" width="100" height="60" as="geometry" />
        </mxCell>
        <mxCell id="jH6iQox9prqGAPSt_MAr-11" value="Ver ubicacion actual" style="ellipse;whiteSpace=wrap;html=1;fillColor=#FFCCE6;" vertex="1" parent="1">
          <mxGeometry x="364" y="210" width="100" height="60" as="geometry" />
        </mxCell>
        <mxCell id="jH6iQox9prqGAPSt_MAr-12" value="Recibir Aalertas de ubicacion" style="ellipse;whiteSpace=wrap;html=1;fillColor=#FFCCE6;" vertex="1" parent="1">
          <mxGeometry x="250" y="230" width="100" height="60" as="geometry" />
        </mxCell>
        <mxCell id="jH6iQox9prqGAPSt_MAr-13" value="Escanear codigo QR para informacion de contacto" style="ellipse;whiteSpace=wrap;html=1;fillColor=#FFCCE6;" vertex="1" parent="1">
          <mxGeometry x="380" y="-300" width="130" height="80" as="geometry" />
        </mxCell>
        <mxCell id="jH6iQox9prqGAPSt_MAr-21" value="" style="endArrow=classic;html=1;rounded=0;exitX=1;exitY=0.3333333333333333;exitDx=0;exitDy=0;exitPerimeter=0;entryX=0;entryY=0.5;entryDx=0;entryDy=0;fillColor=#660033;" edge="1" parent="1" source="jH6iQox9prqGAPSt_MAr-1" target="jH6iQox9prqGAPSt_MAr-3">
          <mxGeometry width="50" height="50" relative="1" as="geometry">
            <mxPoint x="380" y="70" as="sourcePoint" />
            <mxPoint x="430" y="20" as="targetPoint" />
          </mxGeometry>
        </mxCell>
        <mxCell id="jH6iQox9prqGAPSt_MAr-22" value="" style="endArrow=classic;html=1;rounded=0;exitX=1;exitY=0.3333333333333333;exitDx=0;exitDy=0;exitPerimeter=0;entryX=0;entryY=0.5;entryDx=0;entryDy=0;fillColor=#660033;" edge="1" parent="1" source="jH6iQox9prqGAPSt_MAr-1" target="jH6iQox9prqGAPSt_MAr-7">
          <mxGeometry width="50" height="50" relative="1" as="geometry">
            <mxPoint x="80" y="-120" as="sourcePoint" />
            <mxPoint x="240" y="-420" as="targetPoint" />
          </mxGeometry>
        </mxCell>
        <mxCell id="jH6iQox9prqGAPSt_MAr-23" value="" style="endArrow=classic;html=1;rounded=0;exitX=1;exitY=0.3333333333333333;exitDx=0;exitDy=0;exitPerimeter=0;entryX=0;entryY=0.5;entryDx=0;entryDy=0;fillColor=#660033;" edge="1" parent="1" source="jH6iQox9prqGAPSt_MAr-1" target="jH6iQox9prqGAPSt_MAr-4">
          <mxGeometry width="50" height="50" relative="1" as="geometry">
            <mxPoint x="90" y="-110" as="sourcePoint" />
            <mxPoint x="250" y="-410" as="targetPoint" />
          </mxGeometry>
        </mxCell>
        <mxCell id="jH6iQox9prqGAPSt_MAr-24" value="" style="endArrow=classic;html=1;rounded=0;exitX=1;exitY=0.3333333333333333;exitDx=0;exitDy=0;exitPerimeter=0;entryX=0;entryY=0.5;entryDx=0;entryDy=0;fillColor=#660033;" edge="1" parent="1" source="jH6iQox9prqGAPSt_MAr-1" target="jH6iQox9prqGAPSt_MAr-13">
          <mxGeometry width="50" height="50" relative="1" as="geometry">
            <mxPoint x="100" y="-100" as="sourcePoint" />
            <mxPoint x="260" y="-400" as="targetPoint" />
          </mxGeometry>
        </mxCell>
        <mxCell id="jH6iQox9prqGAPSt_MAr-25" value="" style="endArrow=classic;html=1;rounded=0;exitX=1;exitY=0.3333333333333333;exitDx=0;exitDy=0;exitPerimeter=0;entryX=0;entryY=0.5;entryDx=0;entryDy=0;fillColor=#660033;" edge="1" parent="1" source="jH6iQox9prqGAPSt_MAr-1" target="jH6iQox9prqGAPSt_MAr-2">
          <mxGeometry width="50" height="50" relative="1" as="geometry">
            <mxPoint x="110" y="-90" as="sourcePoint" />
            <mxPoint x="270" y="-390" as="targetPoint" />
          </mxGeometry>
        </mxCell>
        <mxCell id="jH6iQox9prqGAPSt_MAr-26" value="" style="endArrow=classic;html=1;rounded=0;exitX=1;exitY=0.3333333333333333;exitDx=0;exitDy=0;exitPerimeter=0;entryX=0;entryY=0.5;entryDx=0;entryDy=0;fillColor=#660033;" edge="1" parent="1" source="jH6iQox9prqGAPSt_MAr-1" target="jH6iQox9prqGAPSt_MAr-6">
          <mxGeometry width="50" height="50" relative="1" as="geometry">
            <mxPoint x="120" y="-80" as="sourcePoint" />
            <mxPoint x="280" y="-380" as="targetPoint" />
          </mxGeometry>
        </mxCell>
        <mxCell id="jH6iQox9prqGAPSt_MAr-27" value="" style="endArrow=classic;html=1;rounded=0;exitX=1;exitY=0.3333333333333333;exitDx=0;exitDy=0;exitPerimeter=0;entryX=0;entryY=0.5;entryDx=0;entryDy=0;fillColor=#660033;" edge="1" parent="1" source="jH6iQox9prqGAPSt_MAr-1" target="jH6iQox9prqGAPSt_MAr-5">
          <mxGeometry width="50" height="50" relative="1" as="geometry">
            <mxPoint x="130" y="-70" as="sourcePoint" />
            <mxPoint x="290" y="-370" as="targetPoint" />
          </mxGeometry>
        </mxCell>
        <mxCell id="jH6iQox9prqGAPSt_MAr-28" value="" style="endArrow=classic;html=1;rounded=0;exitX=1;exitY=0.3333333333333333;exitDx=0;exitDy=0;exitPerimeter=0;entryX=0;entryY=0.5;entryDx=0;entryDy=0;fillColor=#660033;" edge="1" parent="1" source="jH6iQox9prqGAPSt_MAr-1" target="jH6iQox9prqGAPSt_MAr-8">
          <mxGeometry width="50" height="50" relative="1" as="geometry">
            <mxPoint x="140" y="-60" as="sourcePoint" />
            <mxPoint x="300" y="-360" as="targetPoint" />
          </mxGeometry>
        </mxCell>
        <mxCell id="jH6iQox9prqGAPSt_MAr-29" value="" style="endArrow=classic;html=1;rounded=0;exitX=1;exitY=0.3333333333333333;exitDx=0;exitDy=0;exitPerimeter=0;entryX=0;entryY=0.5;entryDx=0;entryDy=0;fillColor=#660033;" edge="1" parent="1" source="jH6iQox9prqGAPSt_MAr-1" target="jH6iQox9prqGAPSt_MAr-9">
          <mxGeometry width="50" height="50" relative="1" as="geometry">
            <mxPoint x="150" y="-50" as="sourcePoint" />
            <mxPoint x="310" y="-350" as="targetPoint" />
          </mxGeometry>
        </mxCell>
        <mxCell id="jH6iQox9prqGAPSt_MAr-30" value="" style="endArrow=classic;html=1;rounded=0;exitX=1;exitY=0.3333333333333333;exitDx=0;exitDy=0;exitPerimeter=0;entryX=0;entryY=0.5;entryDx=0;entryDy=0;fillColor=#660033;" edge="1" parent="1" source="jH6iQox9prqGAPSt_MAr-1" target="jH6iQox9prqGAPSt_MAr-10">
          <mxGeometry width="50" height="50" relative="1" as="geometry">
            <mxPoint x="160" y="-40" as="sourcePoint" />
            <mxPoint x="320" y="-340" as="targetPoint" />
          </mxGeometry>
        </mxCell>
        <mxCell id="jH6iQox9prqGAPSt_MAr-32" value="" style="endArrow=classic;html=1;rounded=0;exitX=1;exitY=0.3333333333333333;exitDx=0;exitDy=0;exitPerimeter=0;entryX=0;entryY=0;entryDx=0;entryDy=0;fillColor=#660033;" edge="1" parent="1" source="jH6iQox9prqGAPSt_MAr-1" target="jH6iQox9prqGAPSt_MAr-11">
          <mxGeometry width="50" height="50" relative="1" as="geometry">
            <mxPoint x="80" y="-120" as="sourcePoint" />
            <mxPoint x="390" y="170" as="targetPoint" />
          </mxGeometry>
        </mxCell>
        <mxCell id="jH6iQox9prqGAPSt_MAr-33" value="" style="endArrow=classic;html=1;rounded=0;exitX=1;exitY=0.3333333333333333;exitDx=0;exitDy=0;exitPerimeter=0;entryX=0.5;entryY=0;entryDx=0;entryDy=0;fillColor=#660033;" edge="1" parent="1" source="jH6iQox9prqGAPSt_MAr-1" target="jH6iQox9prqGAPSt_MAr-12">
          <mxGeometry width="50" height="50" relative="1" as="geometry">
            <mxPoint x="90" y="-110" as="sourcePoint" />
            <mxPoint x="400" y="180" as="targetPoint" />
          </mxGeometry>
        </mxCell>
        <mxCell id="jH6iQox9prqGAPSt_MAr-35" value="&lt;font style=&quot;font-size: 18px;&quot;&gt;Aplicacion&amp;nbsp;&lt;/font&gt;" style="text;html=1;align=center;verticalAlign=middle;resizable=0;points=[];autosize=1;strokeColor=none;fillColor=none;" vertex="1" parent="1">
          <mxGeometry x="315" y="-487" width="110" height="40" as="geometry" />
        </mxCell>
      </root>
    </mxGraphModel>
  </diagram>
</mxfile>
